<?xml version="1.0" encoding="UTF-8" ?>
<!DOCTYPE svg PUBLIC "-//W3C//DTD SVG 1.1//EN" "http://www.w3.org/Graphics/SVG/1.1/DTD/svg11.dtd">
<svg width="158pt" height="66pt" viewBox="0 0 158 66" version="1.1" xmlns="http://www.w3.org/2000/svg">
<g id="#1c234dff">
<path fill="#1c234d" opacity="1.00" d=" M 81.68 24.74 C 83.47 15.63 90.91 7.74 100.20 6.26 C 104.26 5.80 108.46 6.36 112.27 7.79 C 116.09 9.27 118.26 13.36 118.63 17.27 C 119.10 24.49 116.12 31.89 110.69 36.70 C 105.42 40.85 98.45 41.81 91.94 42.02 C 92.18 38.32 92.68 34.58 94.22 31.18 C 97.37 30.32 100.68 29.96 103.66 28.60 C 106.04 26.71 107.05 23.32 106.88 20.37 C 105.48 18.81 103.61 16.72 101.29 17.27 C 97.61 18.02 94.50 20.90 93.54 24.54 C 89.93 35.70 88.41 47.38 85.76 58.78 C 81.94 59.20 78.09 59.36 74.25 59.09 C 76.38 47.57 79.30 36.21 81.68 24.74 Z" />
<path fill="#1c234d" opacity="1.00" d=" M 126.82 16.82 C 134.10 8.19 146.06 4.85 157.03 6.12 C 156.69 9.54 156.37 13.00 155.29 16.28 C 152.59 17.48 149.44 17.00 146.57 17.61 C 141.33 18.22 135.36 21.01 134.00 26.57 C 140.30 26.78 146.61 26.40 152.90 27.00 C 152.34 30.63 151.60 34.23 150.69 37.79 C 144.09 38.41 137.46 37.64 130.85 38.14 C 130.88 41.27 132.70 44.15 135.51 45.53 C 139.42 47.39 143.88 46.88 148.07 47.17 C 147.64 50.72 147.83 54.78 145.70 57.79 C 137.64 59.01 128.32 57.77 122.72 51.28 C 118.27 46.43 118.34 39.33 119.29 33.22 C 120.57 27.30 123.18 21.65 126.82 16.82 Z" />
<path fill="#1c234d" opacity="1.00" d=" M 34.61 16.61 C 35.33 12.11 38.88 8.31 43.22 7.07 C 48.01 6.38 51.76 10.78 52.93 15.00 C 54.97 22.31 56.77 29.70 58.52 37.09 C 62.13 27.78 63.44 17.77 66.37 8.24 C 70.11 7.83 73.89 7.84 77.65 8.06 C 74.98 22.07 71.72 35.96 69.01 49.96 C 68.34 53.13 67.58 56.81 64.51 58.54 C 61.31 60.79 55.95 60.84 53.86 57.07 C 48.49 47.91 47.67 37.03 43.89 27.27 C 40.66 37.86 39.05 48.90 36.61 59.70 C 32.72 60.17 28.81 60.19 24.91 59.95 C 27.70 45.42 31.23 31.02 34.61 16.61 Z" />
<path fill="#1c234d" opacity="1.00" d=" M 16.20 9.14 C 20.14 8.85 24.09 8.86 28.02 9.12 C 24.89 24.74 21.10 40.22 17.82 55.80 C 17.27 57.21 17.40 59.23 16.02 60.12 C 12.42 61.02 8.65 60.75 4.97 60.74 C 6.34 51.02 9.10 41.56 10.96 31.93 C 12.79 24.35 14.01 16.63 16.20 9.14 Z" />
</g>
</svg>
