<?xml version="1.0" encoding="UTF-8" ?>
<!DOCTYPE svg PUBLIC "-//W3C//DTD SVG 1.1//EN" "http://www.w3.org/Graphics/SVG/1.1/DTD/svg11.dtd">
<svg width="64pt" height="64pt" viewBox="0 0 64 64" version="1.1" xmlns="http://www.w3.org/2000/svg">
<g id="#3e3e40ff">
<path fill="#3e3e40" opacity="1.00" d=" M 27.49 7.43 C 28.83 3.21 35.13 3.33 36.76 7.24 C 37.60 13.73 36.51 20.31 37.17 26.82 C 43.10 27.37 49.06 26.60 54.98 27.09 C 57.50 27.23 60.22 29.29 60.08 32.00 C 60.17 34.64 57.63 36.99 55.02 36.96 C 49.08 37.35 43.11 36.64 37.18 37.18 C 36.57 43.42 37.46 49.70 36.87 55.94 C 36.54 58.80 33.09 60.97 30.41 59.70 C 28.61 58.81 27.24 57.01 27.16 54.96 C 26.60 49.05 27.51 43.09 26.85 37.18 C 20.36 36.50 13.78 37.68 7.33 36.67 C 3.25 35.11 3.18 28.86 7.41 27.44 C 13.81 26.22 20.40 27.53 26.85 26.82 C 27.62 20.38 26.21 13.80 27.49 7.43 Z" />
</g>
</svg>
